PathFileType	4	(X/Y/Z)	C:/Users/beibeiliu/ov580/test_trc/User1\sequence.3_training_dense_left.trc
DataRate	CameraRate	NumFrames	NumMarkers	Units	OrigDataRate	OrigDataStartFrame	OrigNumFrames
120	120	10	19	mm	120	182	242
Frame#	Time	ThumbCMC			ThumbMCP			ThumbIP			ThumbTip			IndexMCP			IndexPIP			IndexTip			MiddleMCP			MiddlePIP			MiddleTip			RingMCP			RingPIP			RingTip			PinkyMCP			PinkyPIP			PinkyTip			BackHand1			BackHand2			BackHand3	
		X0	Y0	Z0	X1	Y1	Z1	X2	Y2	Z2	X3	Y3	Z3	X4	Y4	Z4	X5	Y5	Z5	X6	Y6	Z6	X7	Y7	Z7	X8	Y8	Z8	X9	Y9	Z9	X10	Y10	Z10	X11	Y11	Z11	X12	Y12	Z12	X13	Y13	Z13	X14	Y14	Z14	X15	Y15	Z15	X16	Y16	Z16	X17	Y17	Z17	X18	Y18	Z18	
181	1.50833	-145.492	76.9412	-2.05992	-134.16	53.4501	-31.1563	-133.525	48.0374	-58.0275	-148.973	49.3733	-85.8207	-129.624	103.075	-83.4909	-142.098	81.0845	-99.7213	-148.599	59.917	-67.6118	-150.547	114.251	-91.1191	-157.843	85.3503	-107.703	-176.732	62.4915	-76.036	-175.886	123.053	-88.4939	-182.131	90.3638	-105.288	-190.611	72.1332	-82.1999	-198.152	126.558	-76.7973	-193.648	99.2206	-92.8365	-199.576	74.7036	-73.2368	-177.989	134.093	-26.4052	-190.821	129.453	6.84053	-154.781	119.436	-8.24707	
182	1.51667	-147.143	72.6591	3.51385	-138.451	46.5649	-25.8318	-138.497	38.363	-55.3891	-153.213	36.7639	-78.9765	-127.98	90.7847	-79.6821	-141.895	66.8097	-97.5418	-154.182	51.4734	-63.7109	-147.442	101.582	-91.3849	-163.955	69.9126	-104.047	-179.784	55.3877	-76.1721	-168.594	108.734	-91.6694	-182.458	80.7722	-103.044	-196.023	63.8995	-74.9883	-192.587	118.302	-80.1332	-198.843	94.122	-94.7428	-202.675	69.8079	-69.316	-176.091	130.732	-28.6931	-183.946	129.969	6.22669	-150.866	113.889	-6.18434	
183	1.525	-146.758	70.9336	4.78659	-142.215	40.054	-20.0683	-143.377	30.1106	-47.6265	-160.932	33.1811	-71.7188	-129.95	78.93	-80.2029	-144.655	49.0127	-90.7971	-156.466	41.7943	-60.1006	-149.354	92.2058	-89.0521	-166.532	57.9976	-99.8864	-183.267	46.8295	-67.1281	-170.265	100.421	-89.8071	-187.141	70.9035	-100.05	-196.868	55.9181	-73.5602	-192.203	111.86	-78.6637	-196.027	83.1724	-88.8347	-201.229	60.8974	-68.0466	-169.963	125.315	-27.506	-181.15	132.326	3.05934	-148.719	110.951	-4.98215	
184	1.53333	-144.201	67.1246	5.40644	-145.818	35.9276	-14.9179	-150.24	25.8776	-41.7033	-164.851	22.309	-63.3694	-131.391	68.5987	-76.3292	-147.367	42.9384	-87.304	-162.826	38.2883	-55.152	-151.923	78.6368	-90.9311	-165.176	49.0864	-96.7241	-185.091	38.0468	-63.9076	-172.878	90.1876	-91.6253	-187.045	61.4641	-95.5715	-201.568	48.8299	-65.6964	-191.545	102.476	-79.9582	-197.606	74.3213	-85.8871	-206.78	56.2447	-62.5908	-167.905	123.348	-31.7147	-176.787	128.551	1.86008	-144.569	107.543	-8.52282	
185	1.54167	-145.169	65.9126	9.44989	-147.704	34.3095	-11.2209	-152.407	20.7418	-37.9811	-170.553	20.8109	-59.1062	-132.864	58.186	-75.3046	-151.932	34.9558	-81.5969	-164.697	34.3025	-48.5881	-148.633	69.7755	-86.8198	-169.718	43.1006	-91.702	-187.751	34.8066	-58.8791	-172.298	84.1579	-85.4022	-186.785	54.0594	-92.0133	-201.145	43.6582	-61.2148	-189.41	97.5737	-74.65	-202.247	67.871	-81.999	-205.465	52.3811	-57.6047	-165.306	119.833	-32.7376	-171.471	127.087	-2.20416	-142.078	104.343	-8.72723	
186	1.55	-142.19	63.7061	14.1299	-148.221	30.9588	-5.83747	-154.452	13.8573	-29.1991	-172.876	12.2362	-50.5364	-134.174	53.3307	-68.208	-155.452	25.0097	-72.4929	-164.819	28.6733	-42.199	-152.711	66.3833	-81.9456	-171.285	32.7598	-84.7156	-189.227	28.9593	-51.7151	-173.036	72.2124	-84.5696	-192.957	45.5595	-84.7981	-205.301	39.7015	-52.2499	-194.708	90.1402	-76.6702	-200.212	62.6477	-78.7681	-203.295	46.6828	-48.9596	-169.85	118.164	-32.6284	-170.614	128.262	-2.77857	-141.488	102.27	-4.78222	
187	1.55833	-144.929	66.4272	14.549	-149.255	32.5598	-0.637376	-155.899	12.3889	-24.3136	-174.193	8.0594	-46.9147	-135.748	45.1577	-67.7578	-153.21	19.6855	-70.4512	-163.53	26.3337	-32.6602	-151.205	54.5779	-80.2831	-173.84	27.7745	-80.9669	-189.118	25.4266	-46.889	-172.695	65.3075	-81.8992	-190.711	38.0341	-79.2402	-204.035	33.8576	-50.5672	-195.153	84.1052	-74.9961	-204.57	55.7123	-75.3041	-206.872	43.3032	-44.9857	-164.659	109.571	-34.9878	-172.722	126.36	-4.93202	-142.736	102.47	-10.291	
188	1.56667	-141.532	65.5243	16.306	-145.849	28.6406	2.02523	-154.108	10.4713	-21.0759	-175.342	7.83696	-42.1058	-134.952	41.0941	-64.235	-153.303	14.4461	-64.6189	-163.589	24.3855	-28.8098	-154.937	54.6112	-77.3673	-172.239	21.7654	-75.3853	-186.986	22.4933	-35.4488	-176.665	62.2365	-80.4326	-194.625	33.1524	-75.4058	-202.735	30.5873	-42.3358	-194.4	75.6732	-73.1178	-205.529	51.0998	-72.3948	-209.336	39.4784	-42.3848	-168.013	110.912	-38.4918	-172.017	126.421	-2.65686	-141.317	100.91	-11.8834	
189	1.575	-139.346	67.2273	17.4347	-143.511	33.2942	4.83479	-150.072	9.73703	-12.7051	-171.877	1.80098	-35.4205	-131.123	39.0201	-58.4502	-150.756	9.79917	-57.3432	-159.078	19.3279	-23.7938	-152.96	47.5747	-73.8154	-172.423	16.9903	-69.754	-186.237	21.563	-31.0134	-173.417	53.8225	-76.7252	-194.591	25.5087	-68.5861	-200.548	25.5326	-34.9885	-195.666	69.977	-71.181	-201.408	44.2916	-65.8722	-203.783	35.3591	-33.6817	-166.839	108.286	-33.1367	-173.036	126.53	-4.2911	-141.56	99.0802	-8.52206	
190	1.58333	-135.27	69.4687	21.2522	-136.685	31.9797	10.2643	-142.875	9.71628	-8.10931	-162.479	-1.44747	-26.4995	-130.595	38.3405	-54.3754	-148.857	10.7236	-52.6933	-154.388	21.2381	-16.819	-151.78	42.0633	-70.0551	-166.761	9.37513	-59.4982	-181.843	17.8156	-25.1416	-177.447	51.9721	-72.009	-187.283	19.661	-62.3066	-198.791	22.2745	-29.2643	-194.592	66.643	-63.7387	-199.401	36.1249	-58.9625	-199.08	30.6047	-24.8767	-172.565	102.503	-37.5442	-177.058	122.381	-9.10531	-142.056	101.526	-5.78754	
